<svg version="1.1" id="svg2" xmlns="http://www.w3.org/2000/svg" x="0" y="0" viewBox="0 0 24 24" style="enable-background:new 0 0 24 24" xml:space="preserve"><style>.st0{display:none}.st1{display:inline;stroke:#868686;stroke-width:.4}.st1,.st2,.st3{fill:none;stroke-miterlimit:10;stroke-dasharray:2}.st2{display:inline;stroke:#9c9b9b;stroke-width:.25}.st3{stroke:#868686;stroke-width:.2}.st3,.st4{display:inline}.st5{fill:#6f6f6e}.st6{fill:none;stroke:#6f6f6e;stroke-width:.5;stroke-miterlimit:10}.st7{display:inline;fill:#d9d9d9}.st8{fill:#fff}</style><path class="st8" d="M10 9.4c1.1 0 2-.4 2.6-1.3.9-1.3 1.4-2.7 1.6-4.2.1-.9 0-1.7-.3-2.4C13.3.1 12.5-.3 11.1.4 8.9 1.5 7.4 3.4 7 5.8c-.2 1.8 1.3 3.5 3 3.6zM5.3 13.4C6.4 13 7 12.1 7 10.6c0-.9-.2-1.9-.5-2.5-.7-1.2-1.4-1.5-2.6-.9-.9.4-1.6 1-2.2 1.8-.8 1.2-.8 2.5 0 3.6.6.8 2.4 1.2 3.6.8zM14.3 9.3c.5 2.1 3 2.7 4.7 1.3 1.2-1 1.5-2.4 1.4-3.9.1-1.3-.1-2.5-.7-3.6-.9-1.8-2.3-2.1-3.6-.7-1.9 2-2.3 4.4-1.8 6.9zM15.3 14.7c-.8-3.8-4.2-4.8-7-2.1-.1.1-.3.2-.4.4-.3.5-.8.7-1.3.8-1.2.2-2.2.7-2.9 1.7-1 1.2-1.3 3.5-.5 4.6.9 1.3 2.3 1.5 3.8 1.4.2 0 .4-.1.6-.1 1.5-.3 2.9 0 3.9 1.2.6.6 1.3 1 2.1 1.3 1.6.4 2.7.1 3.5-1.2.5-.8.9-1.7.8-2.7 0-1.2-.5-2.3-1.3-3.1-.7-.7-1.1-1.3-1.3-2.2zM19.8 11.5c-1.4.8-2.5 1.8-2.9 3.5-.1.4-.1.8.1 1.2.5 1.4 2.3 2.3 3.7 2.1 1.2-.2 2.2-1.6 2.1-3.3-.1-1-.4-2.1-1.2-3-.4-.6-1-.8-1.8-.5z"/></svg>