<svg xmlns="http://www.w3.org/2000/svg" xml:space="preserve" style="enable-background:new 0 0 24 24" viewBox="0 0 24 24"><path d="M3.1 1.3C2.1 2 0 4.3 0 5v1c0 1.3 1.2 2.4 2.3 2.4 1.3 0 2.4-1.1 2.4-2.4 0 1.3 1.1 2.4 2.4 2.4 1.3 0 2.4-1.1 2.4-2.4 0 1.3 1.1 2.4 2.5 2.4 1.3 0 2.5-1.1 2.5-2.4 0 1.3 1 2.4 2.4 2.4 1.3 0 2.4-1.1 2.4-2.4 0 1.3 1.1 2.4 2.4 2.4C22.8 8.4 24 7.3 24 6V5c0-.6-2.1-3-3.1-3.6-3.3-.1-5.5-.1-8.9-.1-3.4-.1-7.9 0-8.9 0zm6.4 6.5c-.1.2-.3.4-.5.6-.5.5-1.2.8-1.9.8s-1.4-.3-2-.8c-.1-.2-.3-.4-.4-.6-.1.2-.3.4-.5.6-.5.5-1.2.8-1.9.8-.1 0-.2 0-.3-.1-.1 1.1-.2 2.2-.2 3v1.2c0 2.3-.2 7.6 1 8.8 2 .5 5.5.7 9.2.7 3.6 0 7.2-.2 9.2-.7 1.3-1.3 1-6.5 1-8.8v-1.2c0-.8-.1-1.8-.2-3-.1 0-.2.1-.3.1-.7 0-1.4-.3-2-.8-.2-.2-.4-.4-.5-.6 0 .2-.2.4-.3.6-.5.5-1.2.8-2 .8s-1.4-.3-1.9-.8c-.2-.2-.3-.4-.5-.6-.1.2-.3.4-.5.6-.5.5-1.2.8-2 .8h-.2c-.7 0-1.4-.3-2-.8 0-.2-.2-.4-.3-.6zm-2 2.6c.8 0 1.5 0 2.4 1 .7-.1 1.4-.1 2.1-.1.7 0 1.4 0 2.1.1.9-1 1.6-1 2.4-1 .4 0 1.9 0 2.9 2.9l1.1 4c.8 3-.3 3.1-1.6 3.1-2-.1-3.2-1.6-3.2-3-1.1.2-2.4.3-3.7.3-1.3 0-2.6-.1-3.7-.3 0 1.5-1.1 3-3.2 3-1.4 0-2.5-.1-1.6-3.1l1.1-4c1-2.9 2.5-2.9 2.9-2.9zm4.5 2.3s-2.1 2-2.5 2.7l1.4-.1v1.2c0 .1.6 0 1.1 0h1.1v-1.2l1.4.1c-.4-.7-2.5-2.7-2.5-2.7z" style="fill:#fff"/></svg>