<svg xmlns="http://www.w3.org/2000/svg" viewBox="0 0 24 24" style="enable-background:new 0 0 24 24" xml:space="preserve"><path d="M19 12H7.3V7c0-2.4 2.1-4.4 4.7-4.4 1.3 0 2.5.5 3.3 1.3.7.7 1.1 1.5 1.3 2.4.1.7.8 1.2 1.5 1.1.7-.1 1.2-.8 1.1-1.5-.3-1.4-1-2.7-2.1-3.8-1.4-1.3-3.2-2-5.1-2C8 0 4.7 3.1 4.7 7v5c-1 .1-1.7 1-1.7 2v8c0 1.1.9 2 2 2h14c1.1 0 2-.9 2-2v-8c0-1.1-.9-2-2-2zm-7 9c-.5 0-.9-.4-.8-.9l.1-2.3c-.5-.3-.8-.7-.8-1.3 0-.8.7-1.5 1.5-1.5s1.5.7 1.5 1.5c0 .6-.3 1.1-.8 1.3l.1 2.3c.1.5-.3.9-.8.9z" style="fill:#fff"/></svg>