<svg version="1.1" id="svg2" xmlns="http://www.w3.org/2000/svg" x="0" y="0" viewBox="0 0 24 24" style="enable-background:new 0 0 24 24" xml:space="preserve"><style>.st0{display:none}.st1{display:inline;stroke:#868686;stroke-width:.4}.st1,.st2,.st3{fill:none;stroke-miterlimit:10;stroke-dasharray:2}.st2{display:inline;stroke:#9c9b9b;stroke-width:.25}.st3{stroke:#868686;stroke-width:.2}.st3,.st4{display:inline}.st5{fill:#6f6f6e}.st6{fill:none;stroke:#6f6f6e;stroke-width:.5;stroke-miterlimit:10}.st7{display:inline;fill:#d9d9d9}</style><path d="M21 3.8c-1.9-1.6-4.5-2.6-7.6-2.6C5.4 1.2 0 7.4 0 7.4l1.5 2.4s.8.1.4-1.4c.4-.7 1.1-1.7 2.6-2.8v16.1c-.6.2-1.5.5-.9 1.1H8c.6-.6-.3-.9-.9-1.1v-3.8s3 1.2 6.3 1.2c2.9 0 5.5-.8 7.4-2.4 1.9-1.5 3.2-3.8 3.2-6.4 0-2.5-1.1-4.9-3-6.5zm-2.3 11.6c-1.3 1.3-3.3 2.1-5.5 2.1-2.5 0-4.6-.5-6-1.2v-12c1.5-1.1 4-1.7 6-1.7 2.4 0 4.3.9 5.6 2.3 1.3 1.4 2 3.2 2 5.4 0 2.1-.8 3.8-2.1 5.1z" style="fill:#fff"/></svg>