<svg version="1.1" id="Layer_1" xmlns="http://www.w3.org/2000/svg" x="0" y="0" viewBox="0 0 24 24" style="enable-background:new 0 0 24 24" xml:space="preserve"><style>.st0{fill:#fff}</style><path class="st0" d="M16.3 10.4c-.8 0-1.4.6-1.4 1.4 0 .7.6 1.4 1.4 1.4s1.4-.6 1.4-1.4c0-.8-.6-1.4-1.4-1.4z"/><path class="st0" d="m21.4 5-8-4.6c-.8-.5-1.9-.5-2.7 0L2.6 5c-.8.5-1.4 1.4-1.4 2.4v9.3c0 1 .5 1.9 1.4 2.4l8 4.6c.8.5 1.9.5 2.7 0l8-4.6c.8-.5 1.4-1.4 1.4-2.4V7.4c.1-1-.5-1.9-1.3-2.4zM10.9 7.5l-2.3 5.2v4.5c0 .2-.2.3-.3.3h-.8c-.2 0-.3-.2-.3-.3v-4.5L4.8 7.5c-.1-.3.1-.6.3-.6h.5c.2 0 .4.1.5.3l1.8 3.9 1.8-3.9c0-.2.1-.3.3-.3h.5c.3 0 .5.3.4.6zm1.2 10.1c-.4 0-.7-.3-.7-.7 0-.4.3-.7.7-.7s.7.3.7.7c.1.3-.2.7-.7.7zm.6-2.3c0 .2-.1.3-.3.3h-.5c-.2 0-.3-.1-.3-.3l-.3-7.9c0-.2.2-.4.4-.4h.8c.3 0 .5.2.5.4l-.3 7.9zm6.1-.1c0 1.3-1.1 2.4-2.4 2.4h-.2c-1.2 0-2.2-.9-2.4-2.1 0-.2.1-.3.3-.3h.5c.1 0 .2.1.3.2.1.6.6 1.1 1.3 1.1h.2c.7 0 1.3-.6 1.3-1.3v-1.4c-.4.3-.9.5-1.4.5-1.4 0-2.4-1.1-2.4-2.4 0-1.3 1.1-2.4 2.4-2.4.5 0 1 .2 1.4.5 0-.2.1-.3.3-.3h.5c.2 0 .3.1.3.3v5.2z"/></svg>